<?xml version="1.0" encoding="utf-8" ?>
<svg xmlns="http://www.w3.org/2000/svg" xmlns:xlink="http://www.w3.org/1999/xlink" width="494" height="560">
	<path transform="matrix(2.53333 0 0 2.53394 0 3.05176e-05)" d="M0 0L195 0L195 220.562C194.838 220.66 194.674 220.754 194.496 220.821C193.787 221.086 193.434 220.846 192.773 220.573C192.627 220.66 192.483 220.737 192.325 220.8C191.014 221.317 169.229 221.211 168.025 220.661C167.993 220.675 167.962 220.69 167.93 220.702C166.746 221.151 165.666 221.113 164.5 220.644C164.393 220.698 164.29 220.747 164.178 220.791C162.608 221.405 123.805 221.007 118.942 221.007L61.5603 221.007C51.7864 221.006 41.9758 221.18 32.2063 220.987C31.591 220.975 31.1178 220.93 30.5464 220.676C29.4889 221.149 28.5519 221.024 27.4596 220.748C27.3354 220.8 27.2118 220.844 27.0816 220.88C25.5639 221.298 5.10096 221.188 2.3584 220.958C1.93156 220.923 1.58562 220.782 1.22477 220.561C0.742394 220.714 0.483132 220.713 0 220.562L0 0Z"/>
	<path fill="#3C281B" transform="matrix(2.53333 0 0 2.53394 0 3.05176e-05)" d="M20.4374 109.057C19.1307 106.877 18.4831 103.632 18.7618 101.112C18.9736 99.1975 19.6797 98.0112 21.1704 96.8311C21.784 97.9076 22.7342 98.6395 23.4833 99.6102C24.9736 101.541 26.4301 103.718 27.6929 105.804C28.3758 106.933 32.3044 109.289 33.5896 109.739L33.4213 110.586L33.7623 110.945C33.7613 112.209 33.6637 113.562 33.9727 114.792C34.0137 115.581 33.9949 116.427 34.1227 117.204C34.8445 122.735 35.6626 128.845 37.7071 134.069C36.5638 134.24 35.4009 134.21 34.2474 134.218C35.3879 127.961 28.045 126.831 25.3675 122.321C23.8828 119.82 23.6443 116.371 24.3662 113.594C24.1378 111.584 21.5224 110.753 20.4374 109.057Z"/>
	<path fill="#201006" transform="matrix(2.53333 0 0 2.53394 0 3.05176e-05)" d="M20.4374 109.057C21.7334 109.921 22.9115 111.311 24.5494 110.994C25.8333 110.745 27.1139 110.203 28.3334 111.005C28.9567 111.415 29.2673 111.811 29.4142 112.518C28.3224 113.55 25.8438 113.47 24.3662 113.594C24.1378 111.584 21.5224 110.753 20.4374 109.057Z"/>
	<defs>
		<linearGradient id="gradient_0" gradientUnits="userSpaceOnUse" x1="181.08221" y1="187.79347" x2="158.18306" y2="206.39749">
			<stop offset="0" stop-color="#834C19"/>
			<stop offset="1" stop-color="#A1683E"/>
		</linearGradient>
	</defs>
	<path fill="url(#gradient_0)" transform="matrix(2.53333 0 0 2.53394 0 3.05176e-05)" d="M166.397 213.627C166.891 205.549 167.333 197.409 167.661 189.324C167.844 184.804 167.763 180.164 168.202 175.668L168.24 179.336C174.259 182.258 181.003 185.311 184.274 191.502C184.79 192.27 185.297 193.041 185.882 193.759C189.229 200.581 191.647 213.038 192.773 220.573C192.627 220.66 192.483 220.737 192.325 220.8C191.014 221.317 169.229 221.211 168.025 220.661C167.993 220.675 167.962 220.69 167.93 220.702C166.746 221.151 165.666 221.113 164.5 220.644C165.271 220.114 165.72 219.321 166.02 218.461C166.21 216.845 166.36 215.254 166.397 213.627Z"/>
	<defs>
		<linearGradient id="gradient_1" gradientUnits="userSpaceOnUse" x1="173.08687" y1="204.92422" x2="177.94597" y2="209.57506">
			<stop offset="0" stop-color="#5B3900"/>
			<stop offset="1" stop-color="#7E3E13"/>
		</linearGradient>
	</defs>
	<path fill="url(#gradient_1)" transform="matrix(2.53333 0 0 2.53394 0 3.05176e-05)" d="M184.274 191.502C184.79 192.27 185.297 193.041 185.882 193.759C184.423 195.695 184.42 198.626 183.199 200.742C181.827 203.12 171.002 216.684 170.855 217.207C170.765 217.526 170.894 218.207 170.732 218.473C170.377 219.057 168.64 219.998 168.025 220.661C167.993 220.675 167.962 220.69 167.93 220.702C166.746 221.151 165.666 221.113 164.5 220.644C165.271 220.114 165.72 219.321 166.02 218.461C166.377 218.389 166.685 218.231 166.966 217.999C169.979 215.513 181.033 201.807 182.667 198.363C183.733 196.115 184.012 193.938 184.274 191.502Z"/>
	<defs>
		<linearGradient id="gradient_2" gradientUnits="userSpaceOnUse" x1="190.88554" y1="207.41948" x2="167.43433" y2="209.67632">
			<stop offset="0" stop-color="#75400E"/>
			<stop offset="1" stop-color="#9C6637"/>
		</linearGradient>
	</defs>
	<path fill="url(#gradient_2)" transform="matrix(2.53333 0 0 2.53394 0 3.05176e-05)" d="M185.882 193.759C189.229 200.581 191.647 213.038 192.773 220.573C192.627 220.66 192.483 220.737 192.325 220.8C191.014 221.317 169.229 221.211 168.025 220.661C168.64 219.998 170.377 219.057 170.732 218.473C170.894 218.207 170.765 217.526 170.855 217.207C171.002 216.684 181.827 203.12 183.199 200.742C184.42 198.626 184.423 195.695 185.882 193.759Z"/>
	<defs>
		<linearGradient id="gradient_3" gradientUnits="userSpaceOnUse" x1="9.5764303" y1="198.62421" x2="30.701197" y2="199.8376">
			<stop offset="0" stop-color="#7D4716"/>
			<stop offset="1" stop-color="#996133"/>
		</linearGradient>
	</defs>
	<path fill="url(#gradient_3)" transform="matrix(2.53333 0 0 2.53394 0 3.05176e-05)" d="M27.0486 177.836C27.7424 181.107 27.4452 185.081 27.5654 188.449C27.6609 191.123 28.5878 215.056 28.9759 215.676C29.178 217.556 29.2714 219.163 30.5464 220.676C29.4889 221.149 28.5519 221.024 27.4596 220.748C27.3354 220.8 27.2118 220.844 27.0816 220.88C25.5639 221.298 5.10096 221.188 2.3584 220.958C1.93156 220.923 1.58562 220.782 1.22477 220.561C2.31783 213.856 6.07306 196.649 9.6384 191.255C10.0948 190.047 11.2155 188.674 11.9599 187.603C14.7345 183.61 22.1242 178.727 27.0486 177.836Z"/>
	<defs>
		<linearGradient id="gradient_4" gradientUnits="userSpaceOnUse" x1="2.8344288" y1="206.01118" x2="27.541521" y2="208.035">
			<stop offset="0" stop-color="#75410D"/>
			<stop offset="1" stop-color="#9F663A"/>
		</linearGradient>
	</defs>
	<path fill="url(#gradient_4)" transform="matrix(2.53333 0 0 2.53394 0 3.05176e-05)" d="M9.6384 191.255C10.3127 191.981 10.2663 193.241 10.5451 194.173C11.2376 196.489 12.1804 199.021 13.2867 201.171C15.7943 206.044 19.9103 210.072 23.0712 214.49C24.2166 216.091 24.9282 218.232 26.1169 219.702C26.4494 220.113 26.9917 220.505 27.4596 220.748C27.3354 220.8 27.2118 220.844 27.0816 220.88C25.5639 221.298 5.10096 221.188 2.3584 220.958C1.93156 220.923 1.58562 220.782 1.22477 220.561C2.31783 213.856 6.07306 196.649 9.6384 191.255Z"/>
	<defs>
		<linearGradient id="gradient_5" gradientUnits="userSpaceOnUse" x1="101.77036" y1="138.57613" x2="90.521439" y2="6.7667336">
			<stop offset="0" stop-color="#241306"/>
			<stop offset="1" stop-color="#4E3529"/>
		</linearGradient>
	</defs>
	<path fill="url(#gradient_5)" transform="matrix(2.53333 0 0 2.53394 0 3.05176e-05)" d="M101.199 7.46738C108.162 5.60914 113.329 6.35383 119.603 9.96045C121.874 11.266 123.66 13.0539 125.799 14.4824C132.934 13.4412 139.472 13.0226 145.619 17.6133C148.285 19.6038 150.031 22.3087 150.498 25.6142Q150.538 25.8994 150.575 26.1851C150.349 26.856 150.128 27.2312 150.275 27.9318C150.769 28.2107 151.058 28.2496 151.608 28.2342C156.662 30.5912 160.368 33.2216 162.355 38.6733C162.722 39.6805 163.035 40.7106 163.35 41.735C170.276 45.5587 172.56 45.9762 175.667 53.7425C175.308 56.1373 174.797 58.2873 173.951 60.564C176.109 65.1149 177.945 69.2115 177.801 74.3834C177.25 75.2443 176.392 76.2672 176.39 77.32C176.588 78.0154 176.994 78.4424 177.468 78.9703C178.368 79.6179 178.805 80.2053 178.987 81.3155C179.131 82.1901 179.072 83.1382 179.058 84.023C178.826 86.963 177.583 89.3074 175.483 91.3839L175.397 92.0377C177.027 94.1223 177.653 98.6272 177.347 101.216C177.122 103.129 176.513 104.679 174.958 105.902Q174.749 106.066 174.535 106.223L175.544 106.915C175.875 107.402 175.757 107.906 175.642 108.472C175.312 110.085 174.753 111.983 174.029 113.465C172.313 115.756 168.539 117.175 167.411 119.064L169.568 121.473C169.565 123.195 169.675 124.715 168.804 126.261C167.969 127.441 166.994 128.37 165.929 129.342C164.683 129.503 163.62 129.674 162.474 130.213C162.357 131.469 162.092 132.947 162.4 134.187Q160.245 134.083 158.088 134.073C158.795 132.232 159.242 130.291 159.741 128.385C159.829 125.833 160.937 122.111 161.428 119.469L161.672 117.979L161.895 116.46C162.407 114.005 161.96 111.294 161.576 108.848C159.656 108.763 152.575 109.183 151.805 109.03C150.899 105.227 150.911 101.371 150.318 97.5295C149.837 94.4083 148.91 91.3568 148.312 88.2544C147.314 83.0769 146.669 78.0458 145.304 72.9183C144.894 72.5183 144.344 72.2953 143.936 71.8492C142.04 69.7781 141.086 67.96 138.175 67.2817L137.291 67.415C135.624 66.7098 133.973 66.0744 132.187 65.7495L132.497 65.8764C129.856 65.9475 124.361 64.1008 121.857 62.9857C121.128 62.8078 120.606 62.5071 119.982 62.0961L119.495 61.8363C116.582 63.49 114.235 65.0007 110.744 64.7739Q108.779 64.2242 106.79 63.7724C106.019 63.2728 104.989 62.9154 104.147 62.5284L102.891 61.4803C101.002 62.3068 99.1006 63.2926 97.0543 63.6516C92.754 64.4059 86.1888 61.9756 83.0411 62.9703C81.2605 63.3608 79.6108 62.911 78.1746 64.1726C76.4894 63.1739 75.3044 63.1211 73.3882 63.1819C72.1857 63.8671 71.0042 64.5874 69.6906 65.0409C64.7085 66.7651 60.4064 64.3762 59.12 64.7539C58.4578 64.9484 57.2119 66.4275 56.6368 66.9074L56.1586 66.7324C53.5297 69.228 52.1151 74.0775 49.8561 75.5318C48.7695 79.7286 48.3935 83.8612 47.597 88.0916C46.9981 91.2725 46.0157 94.3725 45.4269 97.5531C45.0299 99.697 44.4906 108.081 43.4242 109.268C41.7349 110 39.1372 109.576 37.4464 108.943C36.6643 108.31 35.892 107.64 35.0864 107.039C34.5848 108.253 34.3387 109.841 33.7623 110.945L33.4213 110.586L33.5896 109.739C32.3044 109.289 28.3758 106.933 27.6929 105.804C26.4301 103.718 24.9736 101.541 23.4833 99.6102C22.7342 98.6395 21.784 97.9076 21.1704 96.8311C21.1079 95.9394 19.7284 95.0305 19.0955 94.4454C16.8323 92.3531 15.9702 90.4121 15.8546 87.3425C15.7351 84.1726 16.0918 80.9497 18.4421 78.5956C19.0483 77.9884 19.8341 77.595 20.4151 76.9699C20.1876 75.6011 18.129 73.3931 17.2651 72.1939C17.2239 71.3336 17.2117 70.4779 17.2751 69.6183C17.5415 66.0104 18.6086 61.6643 21.236 59.0154C21.939 58.3066 22.8223 57.8424 23.5735 57.1917C23.6319 55.3735 22.8532 53.399 22.6424 51.5503C25.0178 44.2082 31.6306 45.5874 33.3887 43.6173Q33.3427 43.41 33.3046 43.2011C32.8949 41.0009 32.4736 37.6486 33.8128 35.7079C34.2815 34.7417 34.8285 33.8374 35.5084 33.0043C37.0255 31.1452 38.9005 29.8607 41.3137 29.6205C41.9086 29.3553 42.66 29.3578 43.2691 29.0887C43.9778 28.7755 44.1986 27.5043 44.437 26.8137C46.1623 22.1061 48.4778 18.2233 53.1568 15.9812C56.8831 14.1956 60.6618 14.2128 64.5032 15.5587C65.4508 14.0649 66.4482 13.0532 67.952 12.1174C70.6611 9.66346 76.0598 7.72228 79.6423 7.46322C84.0935 5.83208 91.2806 9.31955 95.6229 10.5601C96.972 9.57115 98.3056 8.59949 99.8736 7.98241C100.323 7.87138 100.771 7.64419 101.199 7.46738Z"/>
	<path fill="#3C281B" transform="matrix(2.53333 0 0 2.53394 0 3.05176e-05)" d="M175.544 106.915C175.875 107.402 175.757 107.906 175.642 108.472C175.312 110.085 174.753 111.983 174.029 113.465C173.551 112.727 174.557 111.355 174.444 110.38L174.127 110.174L173.023 110.489L172.749 110.286C173.53 109.132 174.334 107.636 175.544 106.915Z"/>
	<path fill="#201006" transform="matrix(2.53333 0 0 2.53394 0 3.05176e-05)" d="M151.608 28.2342C150.772 28.7255 150.788 29.2719 150.288 30.0071C149.936 30.5228 149.567 30.7962 148.982 30.9357C148.895 30.8458 148.819 30.7527 148.756 30.6444C148.476 30.1706 148.545 28.6441 148.682 28.1287C148.938 27.1665 149.783 26.6723 150.575 26.1851C150.349 26.856 150.128 27.2312 150.275 27.9318C150.769 28.2107 151.058 28.2496 151.608 28.2342Z"/>
	<path fill="#3C281B" transform="matrix(2.53333 0 0 2.53394 0 3.05176e-05)" d="M57.25 42.1955C56.932 39.8553 56.1273 37.5955 55.8754 35.2463C55.679 33.414 56.0068 32.6181 57.1489 31.1946C57.2649 32.2627 57.3177 33.3918 57.5125 34.445C57.4653 37.0193 57.2551 39.5956 57.25 42.1955Z"/>
	<path fill="#695043" transform="matrix(2.53333 0 0 2.53394 0 3.05176e-05)" d="M67.952 12.1174C70.6611 9.66346 76.0598 7.72228 79.6423 7.46322C78.6835 8.34658 77.3133 8.05198 76.2252 8.55169C75.4822 8.89295 75.7611 9.98929 74.982 10.3642C72.7317 11.4471 70.023 10.6888 68.0444 12.5571L67.952 12.1174Z"/>
	<path fill="#695043" transform="matrix(2.53333 0 0 2.53394 0 3.05176e-05)" d="M153.862 32.9646C155.162 33.4701 156.174 34.1935 157.15 35.174L157.323 35.6959C156.914 36.1298 156.234 36.1167 155.675 36.1369C154.611 36.1754 153.522 36.1 152.458 36.0601C152.225 35.5289 152.237 35.0185 152.227 34.449C152.453 33.6968 153.232 33.3482 153.862 32.9646Z"/>
	<path fill="#3C281B" transform="matrix(2.53333 0 0 2.53394 0 3.05176e-05)" d="M22.9457 94.9956C24.3149 95.8672 28.8954 95.7875 30.6782 95.8485L30.7403 96.0236L30.1684 97.1862C29.9986 97.4987 29.9205 97.8042 29.5708 97.9294C28.1796 98.4274 26.2517 97.7747 24.9566 97.1756C23.776 96.6293 23.4061 96.2442 22.9457 94.9956Z"/>
	<path fill="#3C281B" transform="matrix(2.53333 0 0 2.53394 0 3.05176e-05)" d="M152.458 36.0601C152.326 36.0509 152.218 36.0548 152.089 36.0841C151.587 36.1978 151.028 36.3738 150.512 36.2783C149.631 36.1153 148.709 35.4933 148.196 34.7702C148.123 34.22 148.085 33.8863 148.417 33.4066C148.818 32.8259 149.603 32.4708 150.277 32.3525C151.642 32.1127 152.693 32.1728 153.862 32.9646C153.232 33.3482 152.453 33.6968 152.227 34.449C152.237 35.0185 152.225 35.5289 152.458 36.0601Z"/>
	<path fill="#695043" transform="matrix(2.53333 0 0 2.53394 0 3.05176e-05)" d="M131.531 39.7834C131.685 39.8074 131.835 39.834 131.987 39.8655C133.906 40.2608 138.446 41.4416 139.567 43.1522L139.252 43.2696L138.44 42.7907L138.047 44.1042C137.722 44.3497 137.411 44.5528 136.99 44.5686C135.655 44.6188 132.348 43.4201 131.345 42.439C130.942 42.0456 130.928 41.718 130.903 41.1851C131.175 40.8755 131.4 40.6315 131.772 40.4447C131.8 40.4307 131.829 40.4177 131.857 40.4042L131.531 39.7834Z"/>
	<path fill="#3C281B" transform="matrix(2.53333 0 0 2.53394 0 3.05176e-05)" d="M142.803 22.7487C143.455 23.3172 143.991 23.7969 144.395 24.5814L144.356 25.1801C143.874 25.4996 143.509 25.6217 142.917 25.5213C141.342 25.2545 142.071 24.5189 139.341 24.6092C139.664 24.6902 139.972 24.7396 140.305 24.7683L140.365 25.3956C141.203 26.0267 142.183 26.2817 143.169 26.5937L143.113 26.96L143.396 26.664L143.707 26.8846C142.726 27.0695 141.061 26.1448 139.933 26.0075C136.471 25.586 132.98 25.3334 129.502 25.0694C128.095 24.9625 126.939 24.6997 125.483 24.7416C124.793 24.0462 124.04 23.1743 123.544 22.3306L123.68 21.7488C125.356 23.2376 125.81 23.788 128.123 23.8134C128.973 23.9767 130.033 23.8189 130.913 23.8449C134.575 23.9532 139.981 23.7165 143.413 24.5419L143.519 24.5682L143.655 24.4568Q143.203 23.6156 142.803 22.7487Z"/>
	<path fill="#695043" transform="matrix(2.53333 0 0 2.53394 0 3.05176e-05)" d="M159.666 43.474C161.209 43.4924 162.191 44.2546 163.331 45.1929C164.016 45.7571 164.759 46.3552 164.822 47.3042C164.836 47.509 164.722 47.5564 164.595 47.7041C164.112 46.825 163.627 46.0733 162.811 45.4704C163.045 45.903 163.295 46.3734 163.381 46.8619C163.668 48.4857 161.21 50.904 160.294 52.149C160.087 52.5946 159.894 53.0377 159.515 53.3648C159.164 53.6689 159.101 53.6715 158.643 53.6461C156.851 50.8753 160.359 47.2774 159.733 44.5906L160.073 44.3444Q161.057 44.5913 162.045 44.8242L161.763 44.4659C160.956 44.0651 160.253 43.9614 159.373 43.8746L159.666 43.474Z"/>
	<path fill="#3C281B" transform="matrix(2.53333 0 0 2.53394 0 3.05176e-05)" d="M159.741 128.385C160.284 130.604 158.719 132.38 158.968 133.53L158.811 133.538L158.905 133.702C159.396 133.697 159.903 133.697 160.391 133.637C163.586 133.243 161.018 128.724 162.168 126.852C162.934 125.605 167.147 125.319 168.518 123.549C169.914 121.747 167.588 120.808 167.421 119.201C167.416 119.155 167.414 119.11 167.411 119.064L169.568 121.473C169.565 123.195 169.675 124.715 168.804 126.261C167.969 127.441 166.994 128.37 165.929 129.342C164.683 129.503 163.62 129.674 162.474 130.213C162.357 131.469 162.092 132.947 162.4 134.187Q160.245 134.083 158.088 134.073C158.795 132.232 159.242 130.291 159.741 128.385Z"/>
	<path fill="#201006" transform="matrix(2.53333 0 0 2.53394 0 3.05176e-05)" d="M162.474 130.213C162.283 129.339 162.166 128.303 162.447 127.446C163.599 126.336 166.683 126.87 168.804 126.261C167.969 127.441 166.994 128.37 165.929 129.342C164.683 129.503 163.62 129.674 162.474 130.213Z"/>
	<path fill="#695043" transform="matrix(2.53333 0 0 2.53394 0 3.05176e-05)" d="M129.848 29.3396C133.038 28.6857 136.827 29.4923 139.761 30.7781C140.936 31.293 142.134 31.9114 142.618 33.1695L142.364 32.6589C142.431 32.955 142.531 33.29 142.469 33.5963C142.284 34.5103 141.939 34.8246 141.252 35.36C138.718 33.4707 136.293 35.1009 134.089 33.7882L135.535 33.6643L135.603 33.4444C132.973 31.982 133.434 33.5225 130.311 30.4436C130.245 30.1657 130.234 29.9814 130.276 29.698C130.28 29.6697 130.285 29.6415 130.289 29.6133L129.848 29.3396Z"/>
	<path fill="#695043" transform="matrix(2.53333 0 0 2.53394 0 3.05176e-05)" d="M56.6773 18.235C57.7327 18.1443 60.0391 18.3758 60.8545 19.0153L60.7876 19.2839C60.3982 19.009 60.1295 18.8594 59.6527 18.8011C59.2881 19.4286 59.4085 20.1403 59.4057 20.8593C59.9282 21.3846 61.1177 21.2768 61.8153 21.5762C60.9718 21.5931 59.8949 21.7333 59.082 21.5308C57.6027 21.1624 55.3181 23.6002 53.8831 24.2631C52.7762 24.8724 51.538 25.4924 50.3114 25.8098C49.2262 26.0905 48.8293 25.9971 47.9025 25.4496C47.7427 25.7209 47.7611 25.9229 47.7718 26.2335L47.7772 26.3567L47.1839 25.7954C47.047 25.2228 46.9909 24.9598 47.2413 24.3981C48.5675 21.4219 53.8005 19.3068 56.6773 18.235Z"/>
	<path fill="#3C281B" transform="matrix(2.53333 0 0 2.53394 0 3.05176e-05)" d="M168.554 107.972C172.394 103.694 172.512 100.089 173.849 94.8568C174.171 93.5974 174.229 92.7294 175.397 92.0377C177.027 94.1223 177.653 98.6272 177.347 101.216C177.122 103.129 176.513 104.679 174.958 105.902Q174.749 106.066 174.535 106.223C174.41 106.214 174.326 106.219 174.212 106.278C172.357 107.226 170.609 107.647 168.554 107.972Z"/>
	<path fill="#3C281B" transform="matrix(2.53333 0 0 2.53394 0 3.05176e-05)" d="M166.86 93.6868C167.262 93.7333 167.682 93.8075 168.068 93.9298C169.179 94.2816 170.505 95.2297 171.018 96.2833C171.574 97.4258 171.42 98.7682 171.026 99.9339C170.071 102.766 168.094 104.924 165.453 106.236C164.638 106.465 163.795 106.736 162.959 106.874C162.399 106.966 161.852 107.053 161.362 106.708C161.288 106.268 161.317 106.292 161.616 105.967C162.372 105.143 163.389 104.205 163.927 103.225C165.428 100.495 165.194 96.5892 166.86 93.6868Z"/>
	<path fill="#695043" transform="matrix(2.53333 0 0 2.53394 0 3.05176e-05)" d="M101.199 7.46738C101.757 7.4554 102.253 7.42706 102.761 7.68415C105.321 8.97996 110.476 8.04896 113.476 10.6478C113.03 11.9842 110.855 13.7717 109.576 14.4437C108.248 15.1415 105.447 14.4465 104.084 13.9777C102.692 13.4987 100.23 12.3658 99.5079 11.0257C99.3811 10.7903 99.322 10.5228 99.2798 10.2613C99.6575 9.48333 99.9874 8.87569 99.8736 7.98241C100.323 7.87138 100.771 7.64419 101.199 7.46738Z"/>
	<path fill="#3C281B" transform="matrix(2.53333 0 0 2.53394 0 3.05176e-05)" d="M118.284 29.6107C118.601 29.8155 118.699 30.0441 118.829 30.3912C119.004 30.8564 118.908 31.214 118.713 31.6465C118.419 32.2969 117.975 33.0072 117.275 33.2508C115.541 33.8539 112.903 33.3679 110.984 33.788C108.142 34.4102 107.816 35.3898 105.891 36.1367C105.54 36.2726 105.517 36.2411 105.186 36.0926C105.152 35.9999 105.139 35.9728 105.114 35.8667C104.857 34.762 105.739 32.8906 106.31 31.9365C107.525 29.9072 109.825 27.7626 112.154 27.1781C112.324 27.1354 112.553 27.3397 112.705 27.4315C114.868 27.9142 116.442 28.3542 118.284 29.6107Z"/>
	<path fill="#695043" transform="matrix(2.53333 0 0 2.53394 0 3.05176e-05)" d="M108.798 29.8981C109.31 30.5348 109.869 31.1785 110.729 31.3042C110.787 31.3126 110.845 31.316 110.903 31.3219C110.159 31.6732 109.279 32.0442 108.441 31.9152C107.948 31.8394 107.91 31.7804 107.623 31.3826C107.745 30.7058 108.307 30.3273 108.798 29.8981Z"/>
	<path fill="#695043" transform="matrix(2.53333 0 0 2.53394 0 3.05176e-05)" d="M112.705 27.4315C114.868 27.9142 116.442 28.3542 118.284 29.6107C118.009 30.1898 117.868 30.6783 117.224 30.944C115.391 31.7004 112.845 30.6792 110.903 31.3219C110.845 31.316 110.787 31.3126 110.729 31.3042C109.869 31.1785 109.31 30.5348 108.798 29.8981C110.027 28.7574 111.19 28.1101 112.705 27.4315Z"/>
	<path fill="#695043" transform="matrix(2.53333 0 0 2.53394 0 3.05176e-05)" d="M57.1489 31.1946C58.4731 29.7635 60.4229 28.9452 62.3768 28.8256L62.8007 28.9903L62.7814 29.1998L61.8966 29.3273C62.2005 29.8738 62.928 30.6493 63.0969 31.1721C63.5566 32.5943 63.4399 41.2163 63.0365 42.6499C62.8597 43.2782 62.6065 43.9853 62.0363 44.3549C61.2808 44.3809 61.0098 44.0412 60.3978 43.6187L60.2653 43.8495C60.4837 44.6131 60.8921 45.578 60.7315 46.3689C60.4918 46.2273 59.0811 41.9851 58.9326 41.4092C58.5392 39.8836 58.5342 38.3032 58.2512 36.7638C58.1038 35.9617 57.6449 35.2752 57.5125 34.445C57.3177 33.3918 57.2649 32.2627 57.1489 31.1946Z"/>
	<path fill="#695043" transform="matrix(2.53333 0 0 2.53394 0 3.05176e-05)" d="M115.153 35.8192C115.374 35.784 115.595 35.7529 115.819 35.7358C116.769 35.6632 117.853 35.7429 118.584 36.4183C119.91 37.6424 119.753 40.8225 119.851 42.4936C119.549 43.071 119.246 43.6491 118.913 44.2088C118.484 44.9288 117.662 45.4872 116.848 45.6845C116.078 45.8712 115.484 46.3593 114.846 46.8108C114.604 46.887 114.362 46.9588 114.115 47.0141C113.346 47.1855 112.655 47.0249 111.995 46.5922C111.273 46.118 110.9 45.4226 110.761 44.5825C110.366 42.1898 111.602 38.6577 112.995 36.7325L113.053 36.6546L112.656 36.4703C113.111 36.0383 114.499 35.9501 115.153 35.8192Z"/>
	<path fill="#695043" transform="matrix(2.53333 0 0 2.53394 0 3.05176e-05)" d="M104.946 22.6047C109.305 22.3296 112.979 23.4572 116.909 25.209C115.987 25.5556 114.915 25.3598 113.945 25.3701C109.983 25.4121 106.491 26.1464 103.377 28.7108L103.02 29.1908C102.804 29.1016 102.743 28.9489 102.635 28.756L102.588 28.671C102.032 28.9434 101.025 29.5712 100.425 29.5988C98.884 29.6696 97.1986 27.989 95.5198 28.0293C94.9423 28.0431 94.0242 28.1235 93.5373 27.7811C93.2631 27.5884 93.3106 27.3784 93.2667 27.066C93.3571 26.9036 93.453 26.751 93.572 26.6082C95.3778 24.4415 102.148 22.9149 104.946 22.6047Z"/>
	<path fill="#3C281B" transform="matrix(2.53333 0 0 2.53394 0 3.05176e-05)" d="M179.058 84.023L178.965 84.101C178.403 84.5786 177.762 84.9479 177.257 85.4984C176.145 86.7112 175.338 88.6442 173.813 89.426C172.655 90.0193 171.081 89.9455 169.998 90.5177C169.469 90.7972 169.144 91.464 168.489 91.7701L168.135 91.6348C168.208 89.6175 169.573 87.4108 170.064 85.4093C170.563 83.373 170.427 80.4971 171.4 78.6988C172.109 78.71 173.227 79.6724 173.835 80.0745C173.91 79.3537 174.634 78.7273 175.097 78.1648C175.957 77.9886 176.713 78.5571 177.468 78.9703C178.368 79.6179 178.805 80.2053 178.987 81.3155C179.131 82.1901 179.072 83.1382 179.058 84.023Z"/>
	<path fill="#695043" transform="matrix(2.53333 0 0 2.53394 0 3.05176e-05)" d="M77.6648 16.3465C81.076 15.9091 84.8023 16.4635 88.1064 17.3746C87.9386 17.5979 87.7615 17.807 87.5591 18.0001C85.8367 19.6438 81.2848 22.0151 78.899 22.3662C78.0734 22.4878 77.2827 22.1998 76.4695 22.1954L76.3051 22.1956C73.1507 23.0995 71.2754 20.6781 69.1085 20.3731C68.2699 20.2551 68.0151 21.1788 67.1779 21.1065C66.539 21.0514 65.9302 20.8111 65.5396 20.3239L65.836 19.8064C69.1666 17.5989 73.7513 16.7829 77.6648 16.3465Z"/>
	<path fill="#695043" transform="matrix(2.53333 0 0 2.53394 0 3.05176e-05)" d="M128.123 23.8134C127.277 23.2067 126.528 23.4093 125.686 22.5174C125.656 22.4862 125.628 22.4544 125.598 22.4234C125.032 21.8296 124.669 19.7686 124.677 18.9713C124.683 18.4245 124.886 17.8656 125.295 17.4916C126.053 16.7983 127.303 16.7635 128.274 16.8049C133.252 17.017 139.366 18.9988 142.803 22.7487Q143.203 23.6156 143.655 24.4568L143.519 24.5682L143.413 24.5419C139.981 23.7165 134.575 23.9532 130.913 23.8449C130.033 23.8189 128.973 23.9767 128.123 23.8134Z"/>
	<path fill="#3C281B" transform="matrix(2.53333 0 0 2.53394 0 3.05176e-05)" d="M41.3137 29.6205C41.9086 29.3553 42.66 29.3578 43.2691 29.0887C43.9778 28.7755 44.1986 27.5043 44.437 26.8137C44.7524 29.7381 45.2278 32.206 45.1225 35.2001C42.9804 36.2489 40.4109 40.4856 39.57 42.6636C39.5578 42.6952 39.5466 42.7272 39.535 42.7589C39.72 43.6194 38.9245 44.2481 38.7095 45.0499C38.4291 46.0954 38.3725 47.184 38.0823 48.2456L37.8732 48.162L38.0199 48.3232C37.4973 48.5968 37.165 48.4516 36.5897 48.3712C36.3507 49.2247 36.3168 49.728 35.636 50.3332C35.0175 50.2077 34.4237 49.8476 34.0589 49.3219C33.0637 47.8882 34.2326 46.6983 33.8239 45.2545L33.4971 45.3563L32.9072 46.7023C32.7181 46.1852 33.2771 45.1082 33.5209 44.583C33.7718 44.0426 33.9625 43.5382 34.1112 42.9612L33.3887 43.6173Q33.3427 43.41 33.3046 43.2011C32.8949 41.0009 32.4736 37.6486 33.8128 35.7079C34.2815 34.7417 34.8285 33.8374 35.5084 33.0043C37.0255 31.1452 38.9005 29.8607 41.3137 29.6205Z"/>
	<path fill="#695043" transform="matrix(2.53333 0 0 2.53394 0 3.05176e-05)" d="M33.8128 35.7079C34.2815 34.7417 34.8285 33.8374 35.5084 33.0043C37.0255 31.1452 38.9005 29.8607 41.3137 29.6205L41.8416 29.9247L40.8503 30.1596C40.5152 30.879 41.0023 31.3286 40.8156 31.9318C40.3639 33.3909 36.6348 35.379 35.2293 35.9014C34.9503 36.005 34.6669 36.0841 34.3773 36.1513C34.1579 36.0277 33.9392 35.9365 33.8128 35.7079Z"/>
	<path fill="#695043" transform="matrix(2.53333 0 0 2.53394 0 3.05176e-05)" d="M34.1112 42.9612C34.6144 42.5978 35.157 41.7988 35.5906 41.3261C37.2275 39.5412 38.6394 38.222 40.7303 36.9559C40.0167 38.2963 39.0183 39.4619 38.4149 40.8508C37.7806 42.3107 36.662 46.4542 37.2186 47.8432C38.2765 46.3893 38.6962 44.3835 39.535 42.7589C39.72 43.6194 38.9245 44.2481 38.7095 45.0499C38.4291 46.0954 38.3725 47.184 38.0823 48.2456L37.8732 48.162L38.0199 48.3232C37.4973 48.5968 37.165 48.4516 36.5897 48.3712C36.3507 49.2247 36.3168 49.728 35.636 50.3332C35.0175 50.2077 34.4237 49.8476 34.0589 49.3219C33.0637 47.8882 34.2326 46.6983 33.8239 45.2545L33.4971 45.3563L32.9072 46.7023C32.7181 46.1852 33.2771 45.1082 33.5209 44.583C33.7718 44.0426 33.9625 43.5382 34.1112 42.9612Z"/>
	<path fill="#695043" transform="matrix(2.53333 0 0 2.53394 0 3.05176e-05)" d="M82.4608 32.3224C83.3344 32.2791 84.2321 32.2175 85.1054 32.2702C86.7665 32.3704 90.6374 32.9419 91.7433 34.1758C90.9015 34.3552 89.7677 33.8435 88.9543 33.5965C89.6266 33.9255 90.1606 34.3104 90.6565 34.8778C91.9396 36.3459 91.2582 38.4643 91.1276 40.219Q91.7844 39.8258 92.4336 39.4203C92.4205 39.4808 92.4095 39.5419 92.3944 39.602C91.8742 41.6791 87.9055 44.5285 86.1069 45.5888Q86.4718 44.8856 86.8443 44.1865L86.2869 44.1972C86.2701 44.2269 83.9146 44.6989 83.26 44.9852C83.0266 45.0872 82.7888 45.1922 82.5287 45.1901C81.4009 45.1811 78.8451 44.91 78.0269 44.0709C76.5625 42.5691 77.2128 39.6054 77.2381 37.71L77.2386 37.6225L77.4128 37.5651L77.0597 37.5278L77.0136 37.2884L78.0385 36.7757C78.3911 36.1593 78.6249 35.6025 78.8152 34.9183L78.3143 35.1103L78.5195 35.1344L78.7955 34.8698L78.6786 35.499L78.1507 35.2609C77.7311 35.6932 77.3308 36.1894 76.7633 36.4243C77.6998 34.4719 80.5744 33.1678 82.4608 32.3224Z"/>
	<path fill="#9F775C" transform="matrix(2.53333 0 0 2.53394 0 3.05176e-05)" d="M64.9441 58.8676C69.5732 59.8282 72.0067 58.7623 76.3345 58.941C82.1359 59.1805 88.0002 60.2085 93.7982 60.7043C96.7466 60.9565 99.712 60.6964 102.664 60.9589C104.992 60.9448 109.564 61.763 111.577 61.1086C112.977 60.6536 114.273 59.3805 115.686 59.0727C116.572 58.8797 120.147 59.967 121.283 60.1428C122.594 60.3458 123.982 60.341 125.309 60.4533C128.973 60.6237 132.658 61.0475 136.325 61.0213C140.185 63.7096 144.003 68.3335 145.304 72.9183C144.894 72.5183 144.344 72.2953 143.936 71.8492C142.04 69.7781 141.086 67.96 138.175 67.2817L137.291 67.415C135.624 66.7098 133.973 66.0744 132.187 65.7495L132.497 65.8764C129.856 65.9475 124.361 64.1008 121.857 62.9857C121.128 62.8078 120.606 62.5071 119.982 62.0961L119.495 61.8363C116.582 63.49 114.235 65.0007 110.744 64.7739Q108.779 64.2242 106.79 63.7724C106.019 63.2728 104.989 62.9154 104.147 62.5284L102.891 61.4803C101.002 62.3068 99.1006 63.2926 97.0543 63.6516C92.754 64.4059 86.1888 61.9756 83.0411 62.9703C81.2605 63.3608 79.6108 62.911 78.1746 64.1726C76.4894 63.1739 75.3044 63.1211 73.3882 63.1819C72.1857 63.8671 71.0042 64.5874 69.6906 65.0409C64.7085 66.7651 60.4064 64.3762 59.12 64.7539C58.4578 64.9484 57.2119 66.4275 56.6368 66.9074L56.1586 66.7324C53.5297 69.228 52.1151 74.0775 49.8561 75.5318Q50.0929 74.5132 50.3749 73.5062C51.7578 68.6738 55.1109 64.0753 59.4928 61.5526C61.2453 60.5438 63.166 59.8576 64.9441 58.8676Z"/>
	<path fill="#DEC2B2" transform="matrix(2.53333 0 0 2.53394 0 3.05176e-05)" d="M119.982 62.0961C127.153 61.8127 131.854 64.7635 138.175 67.2817L137.291 67.415C135.624 66.7098 133.973 66.0744 132.187 65.7495L132.497 65.8764C129.856 65.9475 124.361 64.1008 121.857 62.9857C121.128 62.8078 120.606 62.5071 119.982 62.0961Z"/>
	<path fill="#CCAD9A" transform="matrix(2.53333 0 0 2.53394 0 3.05176e-05)" d="M72.3365 62.4435C73.2484 62.1204 74.4059 61.5804 75.363 61.5022C77.0213 61.3667 78.7784 62.5643 80.3532 62.9068C81.1681 63.084 82.1979 62.9838 83.0411 62.9703C81.2605 63.3608 79.6108 62.911 78.1746 64.1726C76.4894 63.1739 75.3044 63.1211 73.3882 63.1819C72.1857 63.8671 71.0042 64.5874 69.6906 65.0409C64.7085 66.7651 60.4064 64.3762 59.12 64.7539C58.4578 64.9484 57.2119 66.4275 56.6368 66.9074L56.1586 66.7324C57.5412 65.2198 58.7671 64.1084 60.6303 63.2214C62.0365 63.2168 63.302 63.529 64.682 63.6744C67.3672 63.9571 69.8025 63.1853 72.3365 62.4435Z"/>
	<defs>
		<linearGradient id="gradient_6" gradientUnits="userSpaceOnUse" x1="96.159981" y1="173.97264" x2="100.68523" y2="62.623604">
			<stop offset="0" stop-color="#B5B8BE"/>
			<stop offset="1" stop-color="#FEDDC5"/>
		</linearGradient>
	</defs>
	<path fill="url(#gradient_6)" transform="matrix(2.53333 0 0 2.53394 0 3.05176e-05)" d="M83.0411 62.9703C86.1888 61.9756 92.754 64.4059 97.0543 63.6516C99.1006 63.2926 101.002 62.3068 102.891 61.4803L104.147 62.5284C104.989 62.9154 106.019 63.2728 106.79 63.7724Q108.779 64.2242 110.744 64.7739C114.235 65.0007 116.582 63.49 119.495 61.8363L119.982 62.0961C120.606 62.5071 121.128 62.8078 121.857 62.9857C124.361 64.1008 129.856 65.9475 132.497 65.8764L132.187 65.7495C133.973 66.0744 135.624 66.7098 137.291 67.415L138.175 67.2817C141.086 67.96 142.04 69.7781 143.936 71.8492C144.344 72.2953 144.894 72.5183 145.304 72.9183C146.669 78.0458 147.314 83.0769 148.312 88.2544C148.91 91.3568 149.837 94.4083 150.318 97.5295C150.911 101.371 150.899 105.227 151.805 109.03C152.575 109.183 159.656 108.763 161.576 108.848C161.96 111.294 162.407 114.005 161.895 116.46L161.672 117.979L161.428 119.469C160.937 122.111 159.829 125.833 159.741 128.385C159.242 130.291 158.795 132.232 158.088 134.073Q160.245 134.083 162.4 134.187C164.606 134.2 166.69 134.079 168.379 135.755C169.956 137.319 169.913 138.925 169.897 141.015C169.854 146.299 169.324 151.63 169.047 156.909C168.908 159.568 169.168 163.047 168.54 165.596C168.462 168.952 168.238 172.315 168.202 175.668C167.763 180.164 167.844 184.804 167.661 189.324C167.333 197.409 166.891 205.549 166.397 213.627C166.36 215.254 166.21 216.845 166.02 218.461C165.72 219.321 165.271 220.114 164.5 220.644C164.393 220.698 164.29 220.747 164.178 220.791C162.608 221.405 123.805 221.007 118.942 221.007L61.5603 221.007C51.7864 221.006 41.9758 221.18 32.2063 220.987C31.591 220.975 31.1178 220.93 30.5464 220.676C29.2714 219.163 29.178 217.556 28.9759 215.676C28.5878 215.056 27.6609 191.123 27.5654 188.449C27.4452 185.081 27.7424 181.107 27.0486 177.836C26.7245 171.981 24.6955 140.394 25.7774 137.176C25.9398 136.661 26.4374 136.076 26.8183 135.702C28.7352 133.824 31.7771 134.196 34.2474 134.218C35.4009 134.21 36.5638 134.24 37.7071 134.069C35.6626 128.845 34.8445 122.735 34.1227 117.204C33.9949 116.427 34.0137 115.581 33.9727 114.792C33.6637 113.562 33.7613 112.209 33.7623 110.945C34.3387 109.841 34.5848 108.253 35.0864 107.039C35.892 107.64 36.6643 108.31 37.4464 108.943C39.1372 109.576 41.7349 110 43.4242 109.268C44.4906 108.081 45.0299 99.697 45.4269 97.5531C46.0157 94.3725 46.9981 91.2725 47.597 88.0916C48.3935 83.8612 48.7695 79.7286 49.8561 75.5318C52.1151 74.0775 53.5297 69.228 56.1586 66.7324L56.6368 66.9074C57.2119 66.4275 58.4578 64.9484 59.12 64.7539C60.4064 64.3762 64.7085 66.7651 69.6906 65.0409C71.0042 64.5874 72.1857 63.8671 73.3882 63.1819C75.3044 63.1211 76.4894 63.1739 78.1746 64.1726C79.6108 62.911 81.2605 63.3608 83.0411 62.9703Z"/>
	<path fill="#DEC2B2" transform="matrix(2.53333 0 0 2.53394 0 3.05176e-05)" d="M119.495 61.8363L119.982 62.0961C120.606 62.5071 121.128 62.8078 121.857 62.9857C120.017 63.1283 117.842 64.9467 116.158 65.7775C114.263 66.4365 111.683 66.8125 109.728 66.2276C108.331 65.8096 107.47 65.0427 106.79 63.7724Q108.779 64.2242 110.744 64.7739C114.235 65.0007 116.582 63.49 119.495 61.8363Z"/>
	<path fill="#DEC2B2" transform="matrix(2.53333 0 0 2.53394 0 3.05176e-05)" d="M83.0411 62.9703C86.1888 61.9756 92.754 64.4059 97.0543 63.6516C99.1006 63.2926 101.002 62.3068 102.891 61.4803L104.147 62.5284C100.952 62.7055 98.2603 64.2689 95.1981 64.8037C92.886 65.2075 89.7233 64.3619 87.3189 64.3055C84.9238 64.2492 82.4867 64.8782 80.1312 64.7693C79.4418 64.7374 78.7971 64.4485 78.1746 64.1726C79.6108 62.911 81.2605 63.3608 83.0411 62.9703Z"/>
	<path fill="#C0A08D" transform="matrix(2.53333 0 0 2.53394 0 3.05176e-05)" d="M110.07 117.95L109.655 118.31C108.838 118.417 107.939 118.57 107.242 118.109C107.304 117.125 106.77 116.421 106.763 115.493C106.726 110.88 111.924 111.899 114.071 109.632C115.371 108.259 116.885 107.377 118.756 107.116C115.476 109.264 112.226 111.867 110.66 115.571L110.819 116.196C110.681 116.852 110.395 117.369 110.07 117.95Z"/>
	<path fill="#C0A08D" transform="matrix(2.53333 0 0 2.53394 0 3.05176e-05)" d="M78.9854 108.349C80.2735 108.506 80.517 108.965 81.5768 109.583C81.7804 109.373 81.8262 109.207 81.896 108.934C82.9375 109.241 83.471 110.137 84.3855 110.623C85.1253 111.017 86.1299 110.88 86.849 111.353C87.252 111.618 87.5549 112.114 87.7801 112.528C88.508 113.864 89.4632 116.449 89.2746 117.955C89.0194 118.337 88.945 118.473 88.4689 118.58C87.6918 118.755 86.6363 118.306 85.9493 117.959C85.4886 117.421 85.2339 116.892 84.9636 116.241L85.2667 115.976C85.2648 115.95 85.264 115.924 85.2611 115.898C85.0056 113.606 80.7677 109.828 78.9854 108.349Z"/>
	<path fill="#695043" transform="matrix(2.53333 0 0 2.53394 0 3.05176e-05)" d="M69.1759 89.0923C70.059 88.9432 71.0993 88.9693 71.9934 88.998C75.131 89.099 81.4604 89.9362 83.6672 92.4039C84.1153 92.9051 84.3573 93.4934 84.3128 94.1707C84.2666 94.8738 83.9638 95.5769 83.4145 96.0298C81.331 97.7477 76.5934 95.1443 74.3103 94.5248C73.2126 94.2269 72.019 94.147 70.8892 94.033C68.236 94.2249 65.5726 94.5581 63.0133 95.3096C61.21 95.8391 59.402 96.5789 57.5776 97.0026C57.08 97.1182 56.7739 97.252 56.3239 96.9538C55.955 96.7094 55.6148 96.1838 55.5435 95.7444C55.4617 95.2412 55.6029 94.9252 55.9033 94.5346C58.3702 91.3269 65.3905 89.5675 69.1759 89.0923Z"/>
	<path fill="#695043" transform="matrix(2.53333 0 0 2.53394 0 3.05176e-05)" d="M121.955 89.0936C127.014 88.6672 131.86 89.6397 136.381 91.9722C137.798 92.7032 139.822 93.9195 140.303 95.5339C140.457 96.0528 140.4 96.1655 140.15 96.6389C138.224 97.8894 131.971 94.8943 129.556 94.5331C125.423 93.9899 122.565 93.9605 118.662 95.4027C117.366 95.8815 116.006 96.5038 114.648 96.7664C113.883 96.9142 113.033 96.6323 112.407 96.1835C111.945 95.852 111.614 95.333 111.527 94.7696C111.398 93.9381 111.676 93.115 112.187 92.4608C113.973 90.1716 119.193 89.473 121.955 89.0936Z"/>
	<path transform="matrix(2.53333 0 0 2.53394 0 3.05176e-05)" d="M56.0558 114.755C57.527 111.084 59.8657 108.336 63.5532 106.743Q64.2795 106.435 65.0328 106.2Q65.7861 105.965 66.559 105.806Q67.3318 105.647 68.1167 105.565Q68.9015 105.484 69.6905 105.48Q70.4796 105.477 71.265 105.552Q72.0505 105.626 72.8248 105.779Q73.599 105.931 74.3543 106.159Q75.1097 106.387 75.8387 106.689C76.9465 107.135 77.9663 107.732 78.9854 108.349C80.7677 109.828 85.0056 113.606 85.2611 115.898C85.264 115.924 85.2648 115.95 85.2667 115.976L84.9636 116.241C83.9747 114.889 82.7154 113.738 81.5277 112.563C80.3527 113.759 81.1003 119.611 77.5002 120.724C77.4653 120.735 77.4308 120.747 77.3961 120.759C76.1429 120.912 74.4643 121.32 73.2382 121.064C71.3072 120.902 68.9854 120.967 67.1679 120.279C65.6817 119.717 64.5177 118.834 63.8704 117.345C62.6461 114.527 63.5602 111.056 64.6375 108.361C61.1207 110.029 58.9721 112.35 56.0558 114.755Z"/>
	<path fill="#EEECED" transform="matrix(2.53333 0 0 2.53394 0 3.05176e-05)" d="M68.0973 107.946C68.8927 107.95 69.4916 107.992 70.0721 108.588C70.4809 109.008 70.7204 109.559 70.7094 110.149Q70.7061 110.353 70.6626 110.551Q70.6191 110.75 70.5371 110.937Q70.4551 111.123 70.3379 111.29Q70.2207 111.456 70.0728 111.596C69.7006 111.948 69.1419 112.195 68.6247 112.165C68.1436 112.136 67.6513 111.866 67.2237 111.659C67.0149 111.204 66.8641 110.773 66.8462 110.267C66.8102 109.252 67.4387 108.636 68.0973 107.946Z"/>
	<path fill="#695043" transform="matrix(2.53333 0 0 2.53394 0 3.05176e-05)" d="M75.2036 108.931C74.0085 108.723 72.196 108.577 71.252 107.771C71.4036 107.763 71.5548 107.758 71.7068 107.762C74.9346 107.857 79.3816 110.21 81.5277 112.563C80.3527 113.759 81.1003 119.611 77.5002 120.724C77.4653 120.735 77.4308 120.747 77.3961 120.759C76.1429 120.912 74.4643 121.32 73.2382 121.064Q73.507 120.309 73.8009 119.563C75.3017 118.918 76.34 117.988 77.3925 116.761C77.8042 115.374 78.0513 114.05 77.8101 112.593C77.5333 110.921 76.5155 109.872 75.2036 108.931Z"/>
	<path fill="#C0A08D" transform="matrix(2.53333 0 0 2.53394 0 3.05176e-05)" d="M77.3925 116.761C77.9445 116.691 78.1139 116.665 78.6426 116.894C78.895 117.582 78.4865 118.346 78.1976 118.969C77.9335 119.539 77.5411 120.151 77.3961 120.759C76.1429 120.912 74.4643 121.32 73.2382 121.064Q73.507 120.309 73.8009 119.563C75.3017 118.918 76.34 117.988 77.3925 116.761Z"/>
	<defs>
		<linearGradient id="gradient_7" gradientUnits="userSpaceOnUse" x1="63.257793" y1="112.67152" x2="72.15638" y2="116.31767">
			<stop offset="0" stop-color="#473511"/>
			<stop offset="1" stop-color="#7B5635"/>
		</linearGradient>
	</defs>
	<path fill="url(#gradient_7)" transform="matrix(2.53333 0 0 2.53394 0 3.05176e-05)" d="M64.6375 108.361C64.7966 108.145 65.0338 108.062 65.2738 107.96C66.2693 107.538 67.1055 107.539 68.0973 107.946C67.4387 108.636 66.8102 109.252 66.8462 110.267C66.8641 110.773 67.0149 111.204 67.2237 111.659C66.5754 112.391 66.6762 113.161 66.735 114.102C66.8233 115.513 67.1785 116.828 68.2643 117.81C69.7984 119.198 71.8431 119.373 73.8009 119.563Q73.507 120.309 73.2382 121.064C71.3072 120.902 68.9854 120.967 67.1679 120.279C65.6817 119.717 64.5177 118.834 63.8704 117.345C62.6461 114.527 63.5602 111.056 64.6375 108.361Z"/>
	<path transform="matrix(2.53333 0 0 2.53394 0 3.05176e-05)" d="M118.756 107.116C123.169 105.394 127.594 104.76 132.063 106.7C134.826 107.899 137.749 109.901 138.871 112.83C138.967 113.081 139.01 113.345 139.026 113.613L138.763 113.916C138.456 113.759 138.406 113.761 138.246 113.439C137.38 115.974 133.315 118.618 131.03 119.733C127.342 121.532 123.484 121.59 119.468 121.58C119.432 121.558 119.397 121.535 119.36 121.513C117.622 120.485 115.781 120.641 115.147 118.269C114.839 117.114 114.158 115.757 114.248 114.629C113.746 114.431 113.688 114.459 113.16 114.596C112.594 115.318 112.21 115.861 111.265 116.073C110.93 116.513 110.988 116.571 111.032 117.132C111.449 117.748 111.871 118.091 112.617 118.244C112.887 118.299 113.161 118.327 113.435 118.351L113.759 118.807C113.28 119.16 112.858 119.091 112.274 119.011C111.661 118.926 110.552 118.78 110.198 118.243C110.12 118.124 110.111 118.073 110.07 117.95C110.395 117.369 110.681 116.852 110.819 116.196L110.66 115.571C112.226 111.867 115.476 109.264 118.756 107.116Z"/>
	<path fill="#EEECED" transform="matrix(2.53333 0 0 2.53394 0 3.05176e-05)" d="M117.587 110.217C118.642 109.564 120.035 108.488 121.343 108.818C121.641 108.893 121.792 109.092 122.013 109.295C122.155 109.944 122.115 110.414 121.735 110.988C121.366 111.546 120.953 111.821 120.357 112.102C119.458 112.113 118.952 111.928 118.248 111.339L117.587 110.217Z"/>
	<path fill="#695043" transform="matrix(2.53333 0 0 2.53394 0 3.05176e-05)" d="M114.395 112.46C115.306 111.293 116.091 110.552 117.587 110.217L118.248 111.339C117.759 112.363 117.711 114.445 118.073 115.518C118.605 117.094 119.984 118.172 121.441 118.871C122.555 119.406 124.002 119.306 125.215 119.491C124.211 120.01 123.179 120.666 122.125 121.06C120.539 120.987 118.992 120.874 117.422 120.637C116.146 118.842 115.136 117.214 114.79 114.994C114.663 114.183 114.69 113.366 114.435 112.578C114.423 112.538 114.408 112.499 114.395 112.46Z"/>
	<path fill="#695043" transform="matrix(2.53333 0 0 2.53394 0 3.05176e-05)" d="M128.027 117.396C128.958 115.682 129.307 114.151 128.941 112.225C128.045 107.508 124.868 109.046 123.209 107.93L123.366 107.649C123.575 107.532 123.804 107.421 124.042 107.377C125.747 107.061 130.166 107.604 131.603 108.581L131.422 108.983C132.478 111.503 133.034 114.49 131.994 117.122C131.507 118.355 130.648 119.499 129.492 120.17C129.054 119.132 130.168 118.3 129.746 117.269C129.157 117.1 128.608 117.269 128.027 117.396Z"/>
	<path fill="#EEECED" transform="matrix(2.53333 0 0 2.53394 0 3.05176e-05)" d="M131.603 108.581C133.887 109.773 136.683 111.324 138.246 113.439C137.38 115.974 133.315 118.618 131.03 119.733C127.342 121.532 123.484 121.59 119.468 121.58C119.432 121.558 119.397 121.535 119.36 121.513C117.622 120.485 115.781 120.641 115.147 118.269C114.839 117.114 114.158 115.757 114.248 114.629C113.746 114.431 113.688 114.459 113.16 114.596C112.594 115.318 112.21 115.861 111.265 116.073C110.93 116.513 110.988 116.571 111.032 117.132C111.449 117.748 111.871 118.091 112.617 118.244C112.887 118.299 113.161 118.327 113.435 118.351L113.759 118.807C113.28 119.16 112.858 119.091 112.274 119.011C111.661 118.926 110.552 118.78 110.198 118.243C110.12 118.124 110.111 118.073 110.07 117.95C110.395 117.369 110.681 116.852 110.819 116.196C111.853 114.856 113.202 113.665 114.395 112.46C114.408 112.499 114.423 112.538 114.435 112.578C114.69 113.366 114.663 114.183 114.79 114.994C115.136 117.214 116.146 118.842 117.422 120.637C118.992 120.874 120.539 120.987 122.125 121.06C123.179 120.666 124.211 120.01 125.215 119.491C126.319 119.012 127.183 118.229 128.027 117.396C128.608 117.269 129.157 117.1 129.746 117.269C130.168 118.3 129.054 119.132 129.492 120.17C130.648 119.499 131.507 118.355 131.994 117.122C133.034 114.49 132.478 111.503 131.422 108.983L131.603 108.581Z"/>
	<path fill="#C0A08D" transform="matrix(2.53333 0 0 2.53394 0 3.05176e-05)" d="M128.027 117.396C128.608 117.269 129.157 117.1 129.746 117.269C130.168 118.3 129.054 119.132 129.492 120.17C127.035 120.681 124.652 121.205 122.125 121.06C123.179 120.666 124.211 120.01 125.215 119.491C126.319 119.012 127.183 118.229 128.027 117.396Z"/>
	<defs>
		<linearGradient id="gradient_8" gradientUnits="userSpaceOnUse" x1="162.31609" y1="105.14016" x2="141.77191" y2="103.43974">
			<stop offset="0" stop-color="#8C6349"/>
			<stop offset="1" stop-color="#CAAE9B"/>
		</linearGradient>
	</defs>
	<path fill="url(#gradient_8)" transform="matrix(2.53333 0 0 2.53394 0 3.05176e-05)" d="M138.175 67.2817C141.086 67.96 142.04 69.7781 143.936 71.8492C144.344 72.2953 144.894 72.5183 145.304 72.9183C146.669 78.0458 147.314 83.0769 148.312 88.2544C148.91 91.3568 149.837 94.4083 150.318 97.5295C150.911 101.371 150.899 105.227 151.805 109.03C152.575 109.183 159.656 108.763 161.576 108.848C161.96 111.294 162.407 114.005 161.895 116.46L161.672 117.979L161.428 119.469C160.937 122.111 159.829 125.833 159.741 128.385C159.242 130.291 158.795 132.232 158.088 134.073C156.331 134.319 154.368 134.286 152.596 134.187L152.176 134.175C148.026 134.294 141.64 134.696 137.729 134.006C138.233 133.688 139.596 133.942 140.333 133.624C140.65 133.486 140.782 133.323 140.899 132.995C142.22 129.315 143.409 109.25 143.343 104.663C143.299 101.536 142.686 98.3563 142.817 95.2389C142.999 90.9049 143.447 86.4191 143.84 82.0942C144.026 80.041 144.469 77.876 144.382 75.8164Q144.354 75.0265 144.173 74.257Q143.993 73.4874 143.668 72.7671C142.385 69.8491 140.148 68.5406 137.291 67.415L138.175 67.2817Z"/>
	<path fill="#9F775C" transform="matrix(2.53333 0 0 2.53394 0 3.05176e-05)" d="M151.805 109.03C152.575 109.183 159.656 108.763 161.576 108.848C161.96 111.294 162.407 114.005 161.895 116.46C160.63 116.025 159.433 116.466 158.171 116.208L158.287 116.015C159.23 115.481 159.852 116.004 160.801 115.738C161.259 115.61 161.565 115.342 161.785 114.928C162.393 113.785 161.705 111.534 161.337 110.355C160.121 110.281 158.959 110.686 157.777 110.608C156.472 110.521 155.05 109.769 153.706 109.55C153.281 109.481 152.848 109.496 152.42 109.537C151.606 110.105 152.445 110.678 152.12 111.555L151.807 111.255C151.636 110.425 151.57 109.852 151.805 109.03Z"/>
	<path fill="#CCAD9A" transform="matrix(2.53333 0 0 2.53394 0 3.05176e-05)" d="M158.171 116.208C159.433 116.466 160.63 116.025 161.895 116.46L161.672 117.979L161.428 119.469C160.846 119.086 160.28 118.967 159.59 119.12C158.768 119.301 158.21 119.916 157.804 120.617C155.456 124.663 156.077 130.795 152.596 134.187L152.176 134.175C152.661 133.389 152.598 131.058 152.775 130.031C153.382 126.504 154.461 123.056 154.995 119.52C155.414 117.708 156.691 117.195 158.171 116.208Z"/>
	<path fill="#C0A08D" transform="matrix(2.53333 0 0 2.53394 0 3.05176e-05)" d="M158.171 116.208C159.433 116.466 160.63 116.025 161.895 116.46L161.672 117.979C160.22 117.339 158.043 118.596 156.577 119.011C156.228 119.109 155.781 119.065 155.459 119.191C155.274 119.263 155.13 119.377 154.995 119.52C155.414 117.708 156.691 117.195 158.171 116.208Z"/>
	<path fill="#DEC2B2" transform="matrix(2.53333 0 0 2.53394 0 3.05176e-05)" d="M152.596 134.187C156.077 130.795 155.456 124.663 157.804 120.617C158.21 119.916 158.768 119.301 159.59 119.12C160.28 118.967 160.846 119.086 161.428 119.469C160.937 122.111 159.829 125.833 159.741 128.385C159.242 130.291 158.795 132.232 158.088 134.073C156.331 134.319 154.368 134.286 152.596 134.187Z"/>
	<defs>
		<linearGradient id="gradient_9" gradientUnits="userSpaceOnUse" x1="35.120377" y1="107.2841" x2="53.870472" y2="105.77474">
			<stop offset="0" stop-color="#8C6449"/>
			<stop offset="1" stop-color="#CCAE9C"/>
		</linearGradient>
	</defs>
	<path fill="url(#gradient_9)" transform="matrix(2.53333 0 0 2.53394 0 3.05176e-05)" d="M56.1586 66.7324L56.6368 66.9074L56.5748 66.9933C54.2652 70.1266 50.7054 74.4869 51.3134 78.7028C52.1887 84.7722 52.9372 89.6538 52.8504 95.8551C52.7956 99.7741 52.6679 103.719 52.5264 107.635C52.4615 109.433 52.2357 111.307 52.3223 113.101C52.3609 113.901 52.6152 114.737 52.7113 115.545C53.2527 120.097 54.2341 124.561 54.4617 129.143C54.5111 130.138 54.3849 133.119 55.051 133.824C59.5142 134.074 63.9833 133.966 68.4258 134.175C70.0658 134.253 71.6932 134.534 73.33 134.658C74.6667 134.759 75.9924 134.618 77.2947 134.998L77.4137 135.258C75.7737 135.86 66.6338 135.508 64.5131 135.25C63.5831 135.137 62.7419 134.75 61.8343 134.563C60.7619 134.342 59.5799 134.349 58.4873 134.303C53.4948 134.093 48.4969 134.292 43.5046 134.158C41.6528 134.263 39.5246 134.478 37.7071 134.069C35.6626 128.845 34.8445 122.735 34.1227 117.204C33.9949 116.427 34.0137 115.581 33.9727 114.792C33.6637 113.562 33.7613 112.209 33.7623 110.945C34.3387 109.841 34.5848 108.253 35.0864 107.039C35.892 107.64 36.6643 108.31 37.4464 108.943C39.1372 109.576 41.7349 110 43.4242 109.268C44.4906 108.081 45.0299 99.697 45.4269 97.5531C46.0157 94.3725 46.9981 91.2725 47.597 88.0916C48.3935 83.8612 48.7695 79.7286 49.8561 75.5318C52.1151 74.0775 53.5297 69.228 56.1586 66.7324Z"/>
	<path fill="#CCAD9A" transform="matrix(2.53333 0 0 2.53394 0 3.05176e-05)" d="M39.2033 112.723C40.318 112.869 41.3325 113.18 42.3912 113.547C43.4984 114.788 42.8172 116.841 42.7735 118.434L42.308 118.399C41.3479 117.295 39.4796 114.12 39.2033 112.723Z"/>
	<path fill="#9F775C" transform="matrix(2.53333 0 0 2.53394 0 3.05176e-05)" d="M35.0864 107.039C35.892 107.64 36.6643 108.31 37.4464 108.943C37.096 109.962 36.1846 111.221 36.1494 112.175C36.4034 112.631 39.6633 115.944 40.3251 116.604C41.181 120.766 43.1051 124.416 42.7697 128.552C41.9005 125.571 41.1993 122.517 40.4014 119.514C40.1825 118.017 39.9091 117.208 38.9859 115.988C38.1125 114.833 36.0325 112.047 34.491 111.888C34.3037 111.868 34.2251 112.017 34.0916 112.134L33.9727 114.792C33.6637 113.562 33.7613 112.209 33.7623 110.945C34.3387 109.841 34.5848 108.253 35.0864 107.039Z"/>
	<path fill="#CCAD9A" transform="matrix(2.53333 0 0 2.53394 0 3.05176e-05)" d="M40.4014 119.514C41.1993 122.517 41.9005 125.571 42.7697 128.552C43.0468 130.41 43.3897 132.283 43.5046 134.158C43.2468 134.094 42.9947 134.022 42.7558 133.903C41.2664 133.16 40.2895 128.89 39.7859 127.341C39.5408 124.87 39.2451 121.818 40.4014 119.514Z"/>
	<defs>
		<linearGradient id="gradient_10" gradientUnits="userSpaceOnUse" x1="38.945831" y1="115.07063" x2="35.03017" y2="121.79146">
			<stop offset="0" stop-color="#C3A189"/>
			<stop offset="1" stop-color="#D9BBAF"/>
		</linearGradient>
	</defs>
	<path fill="url(#gradient_10)" transform="matrix(2.53333 0 0 2.53394 0 3.05176e-05)" d="M33.9727 114.792L34.0916 112.134C34.2251 112.017 34.3037 111.868 34.491 111.888C36.0325 112.047 38.1125 114.833 38.9859 115.988C39.9091 117.208 40.1825 118.017 40.4014 119.514C39.2451 121.818 39.5408 124.87 39.7859 127.341C37.3883 125.95 38.6229 118.459 36.1021 115.901C35.7228 115.516 35.6195 115.463 35.0828 115.457C34.5341 115.825 34.346 116.608 34.1227 117.204C33.9949 116.427 34.0137 115.581 33.9727 114.792Z"/>
	<path fill="#DEC2B2" transform="matrix(2.53333 0 0 2.53394 0 3.05176e-05)" d="M34.1227 117.204C34.346 116.608 34.5341 115.825 35.0828 115.457C35.6195 115.463 35.7228 115.516 36.1021 115.901C38.6229 118.459 37.3883 125.95 39.7859 127.341C40.2895 128.89 41.2664 133.16 42.7558 133.903C42.9947 134.022 43.2468 134.094 43.5046 134.158C41.6528 134.263 39.5246 134.478 37.7071 134.069C35.6626 128.845 34.8445 122.735 34.1227 117.204Z"/>
	<defs>
		<linearGradient id="gradient_11" gradientUnits="userSpaceOnUse" x1="86.191185" y1="229.52017" x2="100.52586" y2="158.06439">
			<stop offset="0" stop-color="#8A8A8D"/>
			<stop offset="1" stop-color="#B6B5B8"/>
		</linearGradient>
	</defs>
	<path fill="url(#gradient_11)" transform="matrix(2.53333 0 0 2.53394 0 3.05176e-05)" d="M27.0486 177.836C26.7245 171.981 24.6955 140.394 25.7774 137.176L25.8527 137.356C26.6982 139.429 25.1047 144.503 27.1317 146.387L27.2565 147.249C37.6676 148.814 47.8377 151.41 58.0589 153.916C60.1256 154.423 62.2799 154.685 64.3667 155.14L81.8464 159.073C87.4431 160.338 92.9394 161.95 98.5143 163.258C103.071 164.327 107.518 164.748 112.092 165.554C117.647 166.532 123.137 167.84 128.629 169.111C132.94 170.108 163.364 176.238 164.418 176.898C164.854 176.819 164.974 176.84 165.239 176.447C165.529 176.015 165.52 175.101 165.526 174.594C165.54 173.391 166.059 172.455 166.931 171.63C167.198 171.378 167.336 171.401 167.692 171.363C167.65 169.256 167.609 167.554 168.54 165.596C168.462 168.952 168.238 172.315 168.202 175.668C167.763 180.164 167.844 184.804 167.661 189.324C167.333 197.409 166.891 205.549 166.397 213.627C166.36 215.254 166.21 216.845 166.02 218.461C165.72 219.321 165.271 220.114 164.5 220.644C164.393 220.698 164.29 220.747 164.178 220.791C162.608 221.405 123.805 221.007 118.942 221.007L61.5603 221.007C51.7864 221.006 41.9758 221.18 32.2063 220.987C31.591 220.975 31.1178 220.93 30.5464 220.676C29.2714 219.163 29.178 217.556 28.9759 215.676C28.5878 215.056 27.6609 191.123 27.5654 188.449C27.4452 185.081 27.7424 181.107 27.0486 177.836Z"/>
	<path fill="#EEECED" transform="matrix(2.53333 0 0 2.53394 0 3.05176e-05)" d="M101.447 167.659C101.769 167.81 101.876 168.056 102.048 168.355C102.094 168.871 102.075 169.294 101.873 169.778C101.217 171.349 99.8868 172.494 98.3405 173.111L97.9391 172.806C97.7641 172.303 97.6767 172.048 97.8093 171.507C98.2042 169.897 100.121 168.5 101.447 167.659Z"/>
	<defs>
		<linearGradient id="gradient_12" gradientUnits="userSpaceOnUse" x1="97.745041" y1="220.90318" x2="97.751511" y2="218.0945">
			<stop offset="0" stop-color="#69686A"/>
			<stop offset="1" stop-color="#7B7E7E"/>
		</linearGradient>
	</defs>
	<path fill="url(#gradient_12)" transform="matrix(2.53333 0 0 2.53394 0 3.05176e-05)" d="M28.9759 215.676C29.6271 216.978 30.6968 217.937 31.9127 218.719C32.4524 219.065 33.0132 219.345 33.6449 219.474C36.1186 219.978 38.8195 220.039 41.3337 220.209C49.9964 220.793 58.7059 220.631 67.3852 220.664L135.224 220.306C141.57 220.241 155.294 221.289 160.73 219.917Q161.133 219.812 161.521 219.662Q161.909 219.513 162.278 219.32Q162.647 219.128 162.992 218.895Q163.337 218.662 163.654 218.392Q163.97 218.122 164.254 217.818Q164.538 217.514 164.786 217.18Q165.034 216.845 165.243 216.485Q165.451 216.125 165.618 215.744C165.914 215.059 165.895 214.421 166.312 213.759L166.397 213.627C166.36 215.254 166.21 216.845 166.02 218.461C165.72 219.321 165.271 220.114 164.5 220.644C164.393 220.698 164.29 220.747 164.178 220.791C162.608 221.405 123.805 221.007 118.942 221.007L61.5603 221.007C51.7864 221.006 41.9758 221.18 32.2063 220.987C31.591 220.975 31.1178 220.93 30.5464 220.676C29.2714 219.163 29.178 217.556 28.9759 215.676Z"/>
	<defs>
		<linearGradient id="gradient_13" gradientUnits="userSpaceOnUse" x1="91.852173" y1="186.05748" x2="104.62998" y2="174.10445">
			<stop offset="0" stop-color="#BBBABE"/>
			<stop offset="1" stop-color="#DEDDE0"/>
		</linearGradient>
	</defs>
	<path fill="url(#gradient_13)" transform="matrix(2.53333 0 0 2.53394 0 3.05176e-05)" d="M93.2542 173.025C95.0823 172.91 96.5313 173.367 98.2559 173.902C99.056 173.563 99.9291 173.186 100.805 173.13C101.87 173.061 104.446 173.098 105.212 173.866C106.643 175.302 103.433 177.688 103.45 179.199C103.469 180.809 105.44 182.601 106.506 183.632C105.61 185.257 104.595 186.766 103.305 188.103C101.936 189.208 99.0822 188.183 97.3317 188.292C96.3281 188.354 95.2584 188.739 94.2933 189.017C93.1499 188.109 92.2467 187.129 91.4373 185.912C89.9132 183.619 88.8076 180.633 89.4178 177.856C89.9387 175.485 91.2951 174.244 93.2542 173.025Z"/>
</svg>
